<svg xmlns="http://www.w3.org/2000/svg" width="177" height="54" viewBox="0 0 177 54">
    <g fill="none" fill-rule="evenodd">
        <g fill="#FFF">
            <g>
                <g>
                    <g>
                        <path d="M23.544 36.08c.052 3.298-.803 6.112-2.564 8.443-1.157 1.589-2.789 2.702-4.896 3.34-1.139.364-2.46.545-3.963.545-2.797 0-5.11-.69-6.941-2.072-1.52-1.14-2.728-2.68-3.626-4.623C.656 39.77.138 37.53 0 34.991l6.76-.466c.311 2.746 1.045 4.731 2.202 5.957.845.933 1.822 1.373 2.926 1.322 1.555-.052 2.798-.812 3.73-2.28.483-.742.725-1.787.725-3.134 0-1.985-.89-3.945-2.668-5.88-1.415-1.329-3.53-3.323-6.345-5.982-2.366-2.28-4.032-4.326-4.999-6.139-1.053-2.037-1.58-4.248-1.58-6.63 0-4.3 1.442-7.555 4.326-9.764C6.855.665 9.065 0 11.707 0c2.538 0 4.714.57 6.527 1.71 1.399.88 2.53 2.11 3.393 3.69.864 1.58 1.39 3.397 1.58 5.452l-6.838 1.243c-.19-1.933-.742-3.436-1.658-4.506-.656-.795-1.597-1.192-2.823-1.192-1.295 0-2.287.579-2.978 1.736-.553.932-.829 2.09-.829 3.47 0 2.159.932 4.36 2.797 6.605.708.846 1.762 1.848 3.16 3.004 1.658 1.382 2.754 2.349 3.29 2.901 1.744 1.762 3.099 3.497 4.066 5.207.449.794.811 1.536 1.088 2.226.673 1.676 1.027 3.187 1.062 4.533M37.432 11.396L34.79 30.019h5.284l-2.642-18.623zm-3.73 25.564l-1.735 10.852H24.56L32.563.57h9.816l7.9 47.242h-7.46L41.136 36.96h-7.433zM55.176 47.812L46.758.57 54.218.57 60.123 37.349 66.106.57 73.566.57 64.992 47.812 55.176 47.812M91.457 11.966c0-2.746-1.351-4.119-4.054-4.119h-4.286v15.1h4.286c1.136 0 2.096-.4 2.88-1.204.783-.802 1.174-1.765 1.174-2.887v-6.89zM87.21.57c3.971 0 6.88 1.096 8.728 3.289 1.64 1.916 2.461 4.576 2.461 7.978V18.7c0 3.35-1.267 6.173-3.801 8.47l5.277 20.642h-7.682L87.85 29.967c-.207.017-.423.026-.646.026h-4.086v17.82h-7.122V.57H87.21z" transform="translate(-50 -26) translate(50 26) translate(.375 .219)"/>
                    </g>
                </g>
                <text font-family="BebasNeueBold, Bebas Neue" font-size="24" font-weight="bold" letter-spacing=".75" transform="translate(-50 -26) translate(50 26)">
                    <tspan x="105.327" y="48">Coupons</tspan>
                </text>
            </g>
        </g>
    </g>
</svg>
