<svg xmlns="http://www.w3.org/2000/svg" width="24" height="24" viewBox="0 0 24 24">
    <g fill="none" fill-rule="evenodd">
        <g fill="#FFF">
            <g>
                <path d="M9.067 0c2.422 0 4.698.932 6.411 2.624 1.713 1.692 2.656 3.943 2.656 6.336 0 2.081-.715 4.055-2.028 5.648l.051-.067 7.67 7.557c.117.116.119.306.003.424l-.003.003-1.222 1.21c-.117.115-.305.115-.422 0l-7.7-7.588c-1.557 1.15-3.438 1.772-5.416 1.772-2.422 0-4.699-.932-6.411-2.624C.943 13.603 0 11.353 0 8.96c0-2.394.943-4.644 2.656-6.336C4.368.932 6.645 0 9.066 0zm0 2.174c-1.864 0-3.616.707-4.934 1.992-1.319 1.285-2.044 2.993-2.044 4.81 0 1.816.725 3.525 2.044 4.81 1.318 1.284 3.07 1.992 4.934 1.992 1.864 0 3.616-.708 4.935-1.992 1.318-1.285 2.044-2.993 2.044-4.81 0-1.817-.726-3.525-2.044-4.81-1.319-1.285-3.071-1.992-4.935-1.992z" transform="translate(-561 -45) translate(275 35) translate(286 10)"/>
            </g>
        </g>
    </g>
</svg>
