<svg xmlns="http://www.w3.org/2000/svg" width="60" height="29" viewBox="0 0 60 29">
    <g fill="none" fill-rule="evenodd">
        <g fill="#FFF">
            <g>
                <g>
                    <g>
                        <g>
                            <path d="M13.934 21.353c.03 1.952-.475 3.618-1.517 4.997-.685.94-1.65 1.6-2.898 1.978-.674.214-1.456.322-2.345.322-1.655 0-3.025-.409-4.108-1.227-.9-.674-1.615-1.586-2.146-2.736-.532-1.15-.838-2.476-.92-3.978l4.001-.276c.184 1.625.618 2.8 1.303 3.526.5.552 1.078.812 1.732.782.92-.03 1.656-.48 2.207-1.35.286-.439.43-1.057.43-1.854 0-1.175-.527-2.335-1.58-3.48-.837-.786-2.09-1.967-3.755-3.54-1.4-1.35-2.386-2.56-2.958-3.634C.756 9.678.445 8.37.445 6.96c0-2.544.853-4.47 2.56-5.779C4.057.394 5.365 0 6.929 0c1.502 0 2.79.337 3.863 1.012.827.52 1.496 1.249 2.008 2.184.51.935.822 2.01.935 3.227l-4.047.735c-.113-1.144-.44-2.033-.981-2.667-.389-.47-.945-.705-1.671-.705-.767 0-1.354.343-1.763 1.027-.327.552-.49 1.237-.49 2.054 0 1.278.551 2.58 1.655 3.91.42.5 1.043 1.093 1.87 1.777.981.818 1.63 1.39 1.947 1.717 1.032 1.043 1.834 2.07 2.407 3.081.265.47.48.91.644 1.318.398.992.608 1.886.628 2.683M22.154 6.745L20.59 17.766h3.127L22.154 6.745zm-2.207 15.13l-1.028 6.422h-4.384L19.272.337h5.81l4.675 27.96h-4.415l-.996-6.423h-4.4zM32.655 28.297L27.673.337 32.088.337 35.583 22.104 39.124.337 43.539.337 38.465 28.297 32.655 28.297M54.128 7.082c0-1.625-.8-2.438-2.4-2.438h-2.536v8.937h2.536c.673 0 1.24-.237 1.704-.713.464-.475.696-1.044.696-1.708V7.082zM51.614.337c2.35 0 4.072.65 5.166 1.947.97 1.134 1.456 2.708 1.456 4.721v4.062c0 1.983-.75 3.654-2.25 5.013l3.124 12.217h-4.547l-2.57-10.561c-.123.01-.251.015-.383.015h-2.418v10.546h-4.216V.337h6.638z" transform="translate(-25 -275) translate(0 238) translate(10 30) translate(15 7) translate(.222 .13)"/>
                        </g>
                    </g>
                </g>
            </g>
        </g>
    </g>
</svg>
